<?xml version="1.0" encoding="utf-8"?>
<!-- Generator: Adobe Illustrator 16.0.3, SVG Export Plug-In . SVG Version: 6.00 Build 0)  -->
<!DOCTYPE svg PUBLIC "-//W3C//DTD SVG 1.1//EN" "http://www.w3.org/Graphics/SVG/1.1/DTD/svg11.dtd">
<svg version="1.1" id="Layer_1" xmlns="http://www.w3.org/2000/svg" xmlns:xlink="http://www.w3.org/1999/xlink" x="0px" y="0px"
	 width="612px" height="792px" viewBox="0 0 612 792" enable-background="new 0 0 612 792" xml:space="preserve">
<path fill="#FFFFFF" stroke="#FFFFFF" stroke-miterlimit="10" d="M85,124.224c0-47.088,28.319-61.575,28.319-61.575
	s-19.652,19.412-19.652,61.575c0,42.162,17.594,61.575,17.594,61.575S85,171.311,85,124.224z"/>
<path fill="#FFFFFF" stroke="#FFFFFF" stroke-miterlimit="10" d="M424.16,124.224c0-47.088-28.318-61.575-28.318-61.575
	s19.652,19.412,19.652,61.575c0,42.162-17.595,61.575-17.595,61.575S424.16,171.311,424.16,124.224z"/>
<path display="none" d="M125.8,115.421c0.936-1.247,2.143-2.25,3.587-2.981c1.439-0.729,3.2-1.098,5.233-1.098
	c2.465,0,4.459,0.654,6.098,1.999c1.62,1.331,2.595,3.167,2.98,5.614l0.2,1.267h4.187l-0.217-1.691
	c-0.223-1.734-0.712-3.32-1.454-4.713c-0.749-1.406-1.73-2.617-2.919-3.602c-1.172-0.968-2.537-1.731-4.056-2.268
	c-1.515-0.535-3.136-0.806-4.819-0.806c-2.703,0-5.089,0.507-7.091,1.508c-1.998,0.999-3.676,2.375-4.99,4.089
	c-1.291,1.685-2.264,3.66-2.893,5.872c-0.615,2.163-0.927,4.461-0.927,6.831c0,2.227,0.327,4.371,0.972,6.37
	c0.654,2.028,1.619,3.844,2.868,5.398c1.273,1.586,2.876,2.863,4.766,3.796c1.9,0.939,4.112,1.416,6.574,1.416
	c1.881,0,10.178-0.162,11.796-0.737c1.641-0.584,3.093-1.442,4.315-2.552c1.213-1.101,2.215-2.442,2.978-3.989
	c0.758-1.538,1.231-3.279,1.408-5.173l0.152-1.639h-4.235l-0.106,1.385c-0.104,1.354-0.425,2.567-0.952,3.605
	c-0.531,1.044-1.232,1.954-2.083,2.704c-0.851,0.748-1.854,1.327-2.983,1.72c-1.153,0.402-8.943,0.477-10.289,0.477
	c-1.795,0-3.386-0.34-4.729-1.012c-1.354-0.677-2.496-1.598-3.393-2.736c-0.922-1.17-1.634-2.543-2.117-4.081
	c-0.492-1.566-0.741-3.232-0.741-4.951c0-1.936,0.244-3.8,0.726-5.541C124.113,118.212,124.837,116.705,125.8,115.421z"/>
<path fill="#FFFFFF" stroke="#FFFFFF" stroke-miterlimit="10" d="M210.031,112.798c-1.102-1.71-2.607-3.094-4.472-4.113
	c-1.88-1.024-4.206-1.544-6.913-1.544c-2.482,0-4.873,0.576-7.106,1.712c-0.836,0.425-1.62,0.927-2.349,1.504l0.307-2.496h-4.2
	l-5.673,46.2h4.2l1.866-15.199c0.573,0.605,1.222,1.142,1.943,1.607c2.008,1.295,4.498,1.953,7.4,1.953
	c2.415,0,4.659-0.464,6.671-1.379c2.001-0.912,3.772-2.177,5.262-3.762c1.465-1.559,2.666-3.378,3.57-5.409
	c0.891-2,1.483-4.163,1.762-6.43c0.291-2.368,0.259-4.657-0.093-6.804C211.845,116.447,211.114,114.483,210.031,112.798z
	 M195.549,138.221c-1.351,0-2.618-0.206-3.765-0.611c-1.124-0.396-2.1-0.98-2.899-1.735c-0.785-0.74-1.375-1.637-1.754-2.666
	c-0.372-1.007-0.478-2.188-0.315-3.508l1.348-10.98c0.121-0.983,0.47-1.877,1.067-2.733c0.634-0.91,1.428-1.716,2.359-2.395
	c0.952-0.694,2.019-1.25,3.17-1.652c1.14-0.397,2.273-0.599,3.37-0.599c2.17,0,3.964,0.412,5.333,1.222
	c1.384,0.822,2.452,1.895,3.174,3.191c0.75,1.345,1.235,2.878,1.444,4.557c0.215,1.737,0.221,3.463,0.017,5.13
	c-0.211,1.719-0.665,3.384-1.349,4.951c-0.671,1.536-1.552,2.909-2.618,4.081c-1.039,1.14-2.293,2.06-3.729,2.737
	C198.978,137.881,197.344,138.221,195.549,138.221z"/>
<path fill="#FFFFFF" stroke="#FFFFFF" stroke-miterlimit="10" d="M241.65,112.798c-1.102-1.71-2.607-3.094-4.472-4.113
	c-1.88-1.024-4.206-1.544-6.913-1.544c-2.482,0-4.873,0.576-7.106,1.712c-0.836,0.425-1.62,0.927-2.349,1.504l0.307-2.496h-4.2
	l-5.673,46.2h4.2l1.866-15.199c0.573,0.605,1.222,1.142,1.943,1.607c2.008,1.295,4.498,1.953,7.4,1.953
	c2.415,0,4.659-0.464,6.671-1.379c2.001-0.912,3.772-2.177,5.262-3.762c1.465-1.559,2.666-3.378,3.57-5.409
	c0.891-2,1.483-4.163,1.762-6.43c0.291-2.368,0.259-4.657-0.093-6.804C243.465,116.447,242.734,114.483,241.65,112.798z
	 M227.169,138.221c-1.351,0-2.618-0.206-3.765-0.611c-1.124-0.396-2.1-0.98-2.899-1.735c-0.785-0.74-1.375-1.637-1.754-2.666
	c-0.372-1.007-0.478-2.188-0.315-3.508l1.348-10.98c0.121-0.983,0.47-1.877,1.067-2.733c0.634-0.91,1.428-1.716,2.359-2.395
	c0.952-0.694,2.019-1.25,3.17-1.652c1.14-0.397,2.273-0.599,3.37-0.599c2.17,0,3.964,0.412,5.333,1.222
	c1.384,0.822,2.452,1.895,3.174,3.191c0.75,1.345,1.235,2.878,1.444,4.557c0.215,1.737,0.221,3.463,0.017,5.13
	c-0.211,1.719-0.665,3.384-1.349,4.951c-0.671,1.536-1.552,2.909-2.618,4.081c-1.039,1.14-2.293,2.06-3.729,2.737
	C230.597,137.881,228.964,138.221,227.169,138.221z"/>
<path fill="#FFFFFF" stroke="#FFFFFF" stroke-miterlimit="10" d="M352.246,126.821c-0.191,1.562-0.596,3.069-1.204,4.479
	c-0.59,1.372-1.368,2.588-2.312,3.616c-0.923,1.003-2.035,1.815-3.305,2.413c-1.255,0.592-2.702,0.892-4.299,0.892
	c-2.715,0-4.633-0.729-5.865-2.23c-1.253-1.523-1.698-3.601-1.36-6.35l2.674-21.78h-4.2l-2.696,21.96
	c-0.465,3.791,0.29,6.87,2.245,9.15c1.962,2.29,4.885,3.45,8.688,3.45c3.019,0,5.808-0.807,8.292-2.399
	c0.685-0.438,1.319-0.932,1.905-1.479l-0.388,3.158h4.199l4.154-33.84h-4.199L352.246,126.821z"/>
<path fill="#FFFFFF" stroke="#FFFFFF" stroke-miterlimit="10" d="M390.162,118.637c-0.362-2.192-1.094-4.156-2.175-5.838
	c-1.101-1.71-2.605-3.094-4.473-4.113c-1.88-1.024-4.206-1.544-6.913-1.544c-2.482,0-4.874,0.576-7.104,1.712
	c-0.837,0.425-1.621,0.927-2.351,1.504l1.824-14.856h-4.2l-5.672,46.2h4.2l0.349-2.839c0.573,0.605,1.221,1.141,1.942,1.606
	c2.009,1.296,4.498,1.953,7.399,1.953c2.415,0,4.659-0.464,6.671-1.379c2.002-0.912,3.772-2.177,5.264-3.763
	c1.465-1.56,2.665-3.379,3.568-5.408c0.892-2.002,1.484-4.166,1.763-6.43C390.545,123.075,390.514,120.786,390.162,118.637z
	 M373.505,138.221c-1.351,0-2.616-0.206-3.764-0.611c-1.125-0.396-2.101-0.98-2.899-1.735c-0.785-0.74-1.375-1.637-1.756-2.666
	c-0.37-1.006-0.477-2.187-0.314-3.508l1.349-10.98c0.121-0.984,0.47-1.878,1.067-2.734c0.632-0.909,1.426-1.715,2.358-2.395
	c0.953-0.694,2.021-1.25,3.17-1.652c1.139-0.397,2.273-0.599,3.37-0.599c2.17,0,3.965,0.412,5.334,1.222
	c1.383,0.821,2.451,1.895,3.174,3.191c0.75,1.346,1.235,2.879,1.444,4.557c0.216,1.735,0.222,3.461,0.017,5.13
	c-0.211,1.718-0.665,3.383-1.35,4.951c-0.672,1.537-1.552,2.91-2.618,4.081c-1.037,1.139-2.292,2.06-3.729,2.736
	C376.934,137.881,375.3,138.221,373.505,138.221z"/>
<path fill="#FFFFFF" stroke="#FFFFFF" stroke-miterlimit="10" d="M277.77,128.201l-0.276,1.385c-0.271,1.354-0.74,2.567-1.395,3.605
	c-0.659,1.044-1.472,1.954-2.416,2.704c-0.942,0.748-2.017,1.327-3.194,1.72c-1.203,0.402-2.495,0.606-3.841,0.606
	c-1.621,0-3.037-0.279-4.209-0.831c-1.182-0.556-2.169-1.309-2.934-2.239c-0.782-0.953-1.387-2.083-1.797-3.359
	c-0.306-0.953-0.502-1.966-0.583-3.025l25.916-9.047l-0.007-1.189c-0.01-1.734-0.305-3.32-0.875-4.713
	c-0.576-1.406-1.409-2.617-2.477-3.602c-1.053-0.968-2.325-1.731-3.778-2.268c-1.449-0.535-3.037-0.806-4.72-0.806
	c-2.703,0-5.151,0.507-7.276,1.508c-2.12,0.999-3.968,2.375-5.492,4.089c-1.498,1.685-2.713,3.66-3.613,5.872
	c-0.88,2.163-1.475,4.461-1.766,6.831c-0.273,2.228-0.209,4.371,0.19,6.37c0.405,2.028,1.147,3.844,2.205,5.398
	c0.049,0.072,0.109,0.135,0.16,0.207c-0.759,0.584-1.688,0.942-2.659,0.942c-2.174,0-3.725-1.768-3.458-3.942l0.119-0.971
	l0.165-1.345l0.139-1.134l0.148-1.202l4.207-34.264h-4.2l-4.778,38.916h0c0,0.003,0,0.006-0.001,0.01l-0.04,0.322h0.017
	c-0.356,4.335,2.788,7.81,7.166,7.81c2.225,0,4.354-0.898,6.003-2.35c0.416,0.288,0.851,0.555,1.311,0.796
	c1.785,0.939,3.938,1.416,6.4,1.416c1.881,0,3.691-0.292,5.379-0.867c1.712-0.584,3.27-1.442,4.628-2.552
	c1.349-1.101,2.515-2.442,3.468-3.989c0.947-1.538,1.633-3.279,2.043-5.173l0.354-1.639H277.77z M258.644,119.9
	c0.674-1.688,1.583-3.195,2.704-4.479c1.088-1.247,2.419-2.25,3.953-2.981c1.529-0.729,3.335-1.098,5.368-1.098
	c2.325,0,4.174,0.598,5.651,1.827c1.163,0.969,1.914,2.231,2.276,3.837l-21.202,7.366
	C257.658,122.818,258.077,121.318,258.644,119.9z"/>
<path fill="#FFFFFF" stroke="#FFFFFF" stroke-miterlimit="10" d="M332.028,135.812c-0.773,1.415-2.298,2.409-3.928,2.409
	c-2.144,0-3.674-1.722-3.46-3.855l1.796-14.625c0.465-3.789-0.29-6.868-2.245-9.15c-1.964-2.289-4.887-3.45-8.688-3.45
	c-3.02,0-5.81,0.807-8.293,2.399c-0.683,0.439-1.318,0.932-1.903,1.479l1.905-15.518h-4.2l-5.673,46.2h4.2l2.328-18.96
	c0.192-1.564,0.597-3.071,1.203-4.479c0.59-1.372,1.369-2.589,2.313-3.617c0.922-1.002,2.033-1.814,3.305-2.413
	c1.256-0.592,2.703-0.892,4.299-0.892c2.714,0,4.632,0.729,5.865,2.229c1.254,1.526,1.698,3.603,1.361,6.351l-1.763,14.358h-0.009
	c-0.008,0.059-0.007,0.115-0.013,0.173l-0.03,0.249h0.013c-0.306,4.293,2.825,7.72,7.172,7.72c2.961,0,5.754-1.589,7.47-3.96
	L332.028,135.812z"/>
<path fill="#FFFFFF" stroke="#FFFFFF" stroke-miterlimit="10" d="M135.684,107.36"/>
<path fill="#FFFFFF" stroke="#FFFFFF" stroke-miterlimit="10" d="M134.693,107.258"/>
<path fill="#FFFFFF" stroke="#FFFFFF" stroke-miterlimit="10" d="M139.879,108.441"/>
<path fill="#FFFFFF" stroke="#FFFFFF" stroke-miterlimit="10" d="M147.938,134.188c0,0,1.949,1.826,2.903,0.751
	c0.381,1.473,1.042,2.771,1.991,3.878c1.961,2.29,4.884,3.451,8.688,3.451c3.018,0,5.808-0.807,8.291-2.399
	c0.684-0.438,2.034-1.641,2.62-2.188l0.143,0.034c1.035,2.616,3.543,4.41,6.687,4.41c1.05,0,2.078-0.2,3.045-0.563l0.501-4.886
	c-0.814,0.769-1.896,1.249-3.03,1.249c-1.825,0-3.196-1.252-3.436-2.939l0.564-4.639l2.78-22.638h-4.2l-2.328,18.96
	c-0.192,1.562-0.597,3.07-1.203,4.479c-0.591,1.372-1.369,2.588-2.314,3.616c-0.922,1.003-2.033,1.815-3.303,2.413
	c-1.256,0.592-2.703,0.892-4.299,0.892c-2.715,0-4.633-0.729-5.866-2.23c-1.253-1.524-1.698-3.601-1.361-6.35l2.674-21.78h-4.2
	c0,0-2.44,18.763-2.706,20.7"/>
<path fill="#FFFFFF" stroke="#FFFFFF" stroke-miterlimit="10" d="M150.577,128.407c0,0-6.827,10.843-17.28,10.02
	c-1.777-0.14-3.313-0.334-4.551-0.994c-1.253-0.668-2.225-1.537-2.97-2.657c-0.763-1.147-1.296-2.497-1.585-4.011
	c-0.298-1.56-0.342-3.221-0.132-4.936c0.239-1.943,0.714-3.815,1.414-5.566c0.684-1.713,1.608-3.244,2.748-4.55
	c1.116-1.278,2.477-2.304,4.046-3.052c1.551-0.739,3.417-1.085,5.419-1.114c0.712-0.01,4.251-0.234,4.94,1.955
	c0.249,0.79,0.366,1.648-0.022,2.763l4.348,0.206c0.817-1.945,0.851-3.663,0.099-5.108c-0.914-1.757-2.904-3.111-5.518-3.539
	c0,0-2.008-0.477-3.698-0.477c-2.691,0-5.122,0.502-7.225,1.493c-2.087,0.983-3.904,2.336-5.401,4.021
	c-1.479,1.663-2.679,3.615-3.568,5.801c-0.876,2.152-1.468,4.441-1.758,6.803c-0.274,2.229-0.209,4.378,0.192,6.386
	c0.409,2.05,1.162,3.891,2.237,5.47c1.101,1.62,2.577,2.923,4.386,3.875c1.806,0.95,3.978,1.432,6.454,1.432
	c17.287,0,21.716-14.22,21.716-14.22H150.577z"/>
</svg>
