<?xml version="1.0" encoding="utf-8"?>
<!-- Generator: Adobe Illustrator 16.0.3, SVG Export Plug-In . SVG Version: 6.00 Build 0)  -->
<!DOCTYPE svg PUBLIC "-//W3C//DTD SVG 1.1//EN" "http://www.w3.org/Graphics/SVG/1.1/DTD/svg11.dtd">
<svg version="1.1" id="Layer_1" xmlns="http://www.w3.org/2000/svg" xmlns:xlink="http://www.w3.org/1999/xlink" x="0px" y="0px"
	 width="241.333px" height="227.333px" viewBox="0 0 241.333 227.333" enable-background="new 0 0 241.333 227.333"
	 xml:space="preserve">
<rect x="-20" y="-20.667" display="none" fill="#2B3990" width="275.333" height="267.333"/>
<circle fill="none" stroke="#FFFFFF" stroke-width="3" stroke-miterlimit="10" cx="116.719" cy="114.994" r="104.809"/>
<g>
	<g>
		<path fill="#FFFFFF" d="M41.771,107.989c2.674,0,5.886,1.06,5.298,4.356l-0.438,2.124h-3.151l0.258-1.244
			c0.257-1.502-0.574-2.161-2.331-2.161c-4.03,0-7.801,3.661-7.801,7.946c0,3.224,2.088,5.311,5.53,5.311
			c5.485,0.077,11.143-4.585,11.143-4.585l-0.369,3.531c0,0-5.683,4.129-11.104,4.129c-5.42,0-8.825-3.296-8.825-8.13
			C29.98,113.261,35.216,107.989,41.771,107.989z"/>
		<path fill="#FFFFFF" d="M50.122,120.183l1.721-9.008h-3.076l0.551-2.747h6.627l-2.125,11.023
			c-0.183,0.767-0.294,1.537-0.294,2.123c0,1.613,0.696,2.601,2.784,2.601c3.7,0,6.703-3.81,7.361-7.325l1.097-5.675h-3.076
			l0.55-2.747h6.629l-2.563,13.11c-0.073,0.402-0.112,0.805-0.112,1.134c0,1.32,0.735,1.583,1.649,1.612
			c1.904,0.062,4.264-2.181,4.264-2.181l-0.701,3.624c-1.659,1.304-3.437,1.489-4.918,1.304c-1.481-0.188-3.955-1.281-3.699-4.065
			h-0.073c-1.209,1.904-3.772,4.431-7.653,4.431c-2.82,0-5.201-1.392-5.201-4.871C49.864,121.832,49.939,121.025,50.122,120.183z"/>
		<path fill="#FFFFFF" d="M74.073,111.979c0.074-0.476-0.037-0.805-0.624-0.805h-2.307l0.551-2.747h4.136
			c1.501,0,1.903,0.586,1.903,1.429c0,0.366-0.219,1.17-0.364,1.683h0.072c1.281-2.015,3.59-3.551,6.482-3.551
			c4.394,0,6.921,2.965,6.921,7.616c0,6.993-4.945,11.791-10.071,11.791c-2.455,0-4.578-1.062-5.53-3.222h-0.072
			c0,0-0.038,0.77-0.219,1.72l-1.651,8.387H69.75L74.073,111.979z M80.408,124.321c3.186,0,6.81-3.148,6.81-8.459
			c0-2.967-1.537-4.762-4.175-4.762c-3.771,0-6.772,4.139-6.772,8.459C76.27,122.161,77.553,124.321,80.408,124.321z"/>
		<path fill="#FFFFFF" d="M94.019,111.979c0.073-0.476-0.038-0.805-0.623-0.805h-1.087l-0.669-2.747h4.137
			c1.501,0,1.904,0.586,1.904,1.429c0,0.366-0.219,1.17-0.368,1.683h0.074c1.282-2.015,3.589-3.551,6.484-3.551
			c4.394,0,6.919,2.965,6.919,7.616c0,6.993-4.943,11.791-10.071,11.791c-2.452,0-4.578-1.062-5.528-3.222h-0.073
			c0,0-0.037,0.77-0.221,1.72l-1.647,8.387h-3.552L94.019,111.979z M100.353,124.321c3.188,0,6.811-3.148,6.811-8.459
			c0-2.967-1.539-4.762-4.174-4.762c-3.772,0-6.773,4.139-6.773,8.459C96.217,122.161,97.497,124.321,100.353,124.321z"/>
		<path fill="#FFFFFF" d="M112.328,121.685l3.478-17.834h-3.11l0.548-2.746h6.628l-3.881,20.251
			c-0.11,0.438-0.309,0.979-0.185,1.243c1.396,2.969,5.159,0.527,5.159,0.527l1.831,2.086c0,0-2.135,2.185-6.477,1.854
			c-0.963-0.022-4.175-0.438-4.175-3.697C112.145,122.893,112.219,122.307,112.328,121.685z"/>
		<path fill="#FFFFFF" d="M130.639,107.989c4.762,0,7.03,2.856,7.03,6.847c0,1.503-0.586,3.188-0.586,3.188h-13.477
			c0,0-0.145,0.623-0.145,1.317c0,2.855,1.867,4.98,5.272,4.98c3.188,0,10.313-2.973,10.532-4.106
			c0.219-1.135-0.765,3.957-0.765,3.957s-5.959,3.225-9.95,3.225c-5.421,0-8.716-3.296-8.716-7.91
			C119.836,113.335,124.415,107.989,130.639,107.989z M134.007,115.751c0,0,0.11-0.622,0.11-1.208c0-2.49-1.464-3.736-3.589-3.736
			c-2.71,0-5.273,1.796-6.408,4.944H134.007z"/>
	</g>
	<g>
		<path fill="#FFFFFF" d="M148.637,103.703h-2.966l0.513-2.749h6.555l-1.831,9.558c-0.184,0.88-0.476,1.649-0.476,1.649h0.072
			c0.55-1.099,3.333-4.322,7.617-4.322c3.225,0,5.2,1.686,5.2,4.871c0,2.271-1.611,8.349-1.611,9.814c0,1.39,0.73,1.61,1.646,1.61
			c0.515,0,2.383-0.722,2.383-0.722l1.069,2.332c0,0-2.923,1.148-4.697,1.138c-1.646-0.013-4.064-0.331-4.064-3.48
			c0-1.757,1.576-7.8,1.576-9.631c0-1.757-0.989-2.673-2.747-2.673c-3.735,0-6.775,3.443-7.543,7.397l-1.647,8.313h-3.517
			L148.637,103.703z"/>
		<path fill="#FFFFFF" d="M165.911,120.036l1.722-9.011h-3.075l0.548-2.746h6.628l-2.122,11.022
			c-0.184,0.77-0.293,1.539-0.293,2.125c0,1.611,0.696,2.601,2.782,2.601c3.697,0,6.703-3.81,7.359-7.324l1.1-5.678h-3.076
			l0.551-2.746h6.627l-2.563,13.111c-0.074,0.402-0.109,0.806-0.109,1.135c0,1.317,0.731,1.61,1.646,1.61
			c0.552,0,2.103-0.074,2.103-0.074l0.672,2.749c0,0-3.249,0.073-4.127,0.073c-2.49,0-3.957-1.281-3.699-4.065h-0.073
			c-1.209,1.904-3.772,4.431-7.653,4.431c-2.82,0-5.199-1.391-5.199-4.87C165.657,121.684,165.73,120.876,165.911,120.036z"/>
		<path fill="#FFFFFF" d="M189.3,103.703h-3.113l0.548-2.749h6.627l-1.609,8.388c-0.184,0.877-0.476,1.683-0.476,1.683h0.074
			c1.317-1.867,3.733-3.186,6.187-3.186c4.394,0,6.921,2.967,6.921,7.617c0,6.994-4.98,11.792-10.105,11.792
			c-2.527,0-4.724-1.135-5.639-3.369h-0.075c0,0-0.036,0.697-0.184,1.502l-0.293,1.429h-2.11L189.3,103.703z M194.024,124.175
			c3.149,0,6.811-3.151,6.811-8.462c0-2.967-1.576-4.759-4.174-4.759c-3.847,0-6.812,4.1-6.812,8.532
			C189.848,122.05,191.093,124.175,194.024,124.175z"/>
	</g>
</g>
</svg>
