<?xml version="1.0" encoding="utf-8"?>
<!-- Generator: Adobe Illustrator 16.0.3, SVG Export Plug-In . SVG Version: 6.00 Build 0)  -->
<!DOCTYPE svg PUBLIC "-//W3C//DTD SVG 1.1//EN" "http://www.w3.org/Graphics/SVG/1.1/DTD/svg11.dtd">
<svg version="1.1" id="Layer_1" xmlns="http://www.w3.org/2000/svg" xmlns:xlink="http://www.w3.org/1999/xlink" x="0px" y="0px"
	 width="345.07px" height="159.155px" viewBox="0 0 345.07 159.155" enable-background="new 0 0 345.07 159.155"
	 xml:space="preserve">
<g id="finished_2_1_">
	<g>
		<path fill="#FFFFFF" d="M62.353,88.772c0.155-0.093,2.259-1.415,2.504-1.551c0.309-0.171,5.803-4.3,6.098-3.939
			c0.061,0.074,0.863,1.023,0.319,1.86c-2.104,3.234-9.569,10.302-18.633,10.65c-4.257,0.164-7.568-1.48-9.924-4.44
			c-2.357-2.96-3.249-6.77-2.677-11.43c0.572-4.659,2.353-8.421,5.345-11.281c2.991-2.859,6.686-4.29,11.086-4.29
			c3.08,0,5.519,0.751,7.313,2.251c1.796,1.5,2.55,3.431,2.26,5.79c-0.211,1.72-0.936,3.131-2.17,4.229
			c-1.236,1.102-3.242,1.24-3.835-0.128s1.25-0.583,1.25-3.25c0-1.652-1.02-3.422-1.925-4.361c-0.904-0.939-2.217-1.411-3.937-1.411
			c-2.279,0-4.258,1.121-5.932,3.361c-1.675,2.239-2.738,5.2-3.19,8.879c-0.452,3.681,0.135,5.74,1.527,7.92
			c1.393,2.18,3.519,3.27,6.379,3.27C57.071,90.901,59.286,90.621,62.353,88.772z"/>
		<path display="none" fill="#FFFFFF" d="M77.901,172.083c0.155-0.093,2.259-1.415,2.504-1.551c0.309-0.171,5.803-4.3,6.098-3.939
			c0.295,0.359-4.537,5.095-4.851,5.5c-0.198,0.256-2.007,1.91-2.143,2.03c-3.287,3.32-7.062,4.98-11.321,4.98
			s-7.568-1.48-9.924-4.44c-2.357-2.96-3.249-6.77-2.677-11.43c0.572-4.659,2.353-8.421,5.345-11.281
			c2.991-2.859,6.686-4.29,11.086-4.29c3.08,0,5.519,0.751,7.313,2.251c1.796,1.5,2.55,3.431,2.26,5.79
			c-0.211,1.72-0.936,3.131-2.17,4.229c-1.236,1.102-2.713,1.649-4.432,1.649c-0.761,0-1.114-0.219-1.06-0.659
			c0.01-0.08,0.157-0.3,0.441-0.659c0.862-1.161,1.395-2.561,1.596-4.201c0.201-1.64-0.15-2.93-1.055-3.869
			c-0.904-0.939-2.217-1.411-3.937-1.411c-2.279,0-4.258,1.121-5.932,3.361c-1.675,2.239-2.738,5.2-3.19,8.879
			c-0.452,3.681,0.018,6.611,1.41,8.791c1.393,2.18,3.519,3.27,6.379,3.27C72.502,175.083,74.834,173.931,77.901,172.083z"/>
		<path fill="#FFFFFF" d="M93.082,89.672c-0.152,1.239,0.351,1.859,1.511,1.859c6.044,0,8.079-4.705,8.079-4.705l1.082,0.805
			c0,0-3.006,8.177-12.204,8.161c-3.081-0.005-4.384-1.921-3.913-5.761c-1.137,1.761-2.678,3.161-4.626,4.2
			c-1.948,1.04-4.192,1.561-6.732,1.561s-4.512-0.871-5.918-2.61c-1.407-1.74-1.917-4.19-1.528-7.351l1.842-14.999
			c0.108-0.881-0.239-1.049-1.037-1.32c0,0-0.988-0.681-1.028-1.948s0.583-1.512,2.167-2.191c1.583-0.681,2.834-1.021,3.755-1.021
			c1.6,0,2.321,0.642,2.164,1.921l-2.232,18.18c-0.6,4.881,1.021,7.32,4.862,7.32c2.679,0,4.912-1.159,6.697-3.48
			c1.785-2.319,2.894-5.239,3.326-8.76c0.432-3.52,0.58-6.109,0.444-7.771c-0.137-1.659-0.517-2.538-1.209-4.059
			c0,0-0.649-0.632-0.637-1.67s0.83-0.901,0.83-0.901l7.416-0.78L93.082,89.672z"/>
		<path fill="#FFFFFF" d="M126.642,68.402c-2.048-2.7-4.804-4.051-8.263-4.051c-3.46,0-6.645,1.261-9.554,3.78l0.037-0.299
			c0.226-1.84-0.142-2.761-1.102-2.761c-1.319,0-2.912,0.261-4.775,0.78c-1.864,0.521-2.575,1.168-2.501,2.712
			s1.438,1.548,1.438,1.548c0.815,0.201,1.154,0.861,1.017,1.98l-3.588,29.22c-0.243,1.986-0.865,6.536-1.324,9.6h5.616
			c0,0,0.614-5.57,0.748-6.659l4.125-33.601c2.231-1.561,4.577-2.34,7.037-2.34s4.326,1.091,5.599,3.27
			c1.271,2.181,1.691,5.04,1.256,8.58s-1.567,6.49-3.396,8.851c-1.83,2.36-3.944,3.54-6.345,3.54c-1.08,0-2.852-0.479-3.672-0.8
			c-0.821-0.319-2.974-1.583-3.008-1.564c-0.646,0.355-1.527,0.705-1.65,1.704c-0.059,0.48,3.75,3.916,9.312,3.9
			c3.8-0.011,7.146-1.6,10.04-4.8c2.892-3.201,4.621-7.091,5.183-11.671C129.434,74.743,128.69,71.102,126.642,68.402z"/>
		<path fill="#FFFFFF" d="M157.667,68.402c-2.049-2.7-4.804-4.051-8.263-4.051c-3.46,0-6.645,1.261-9.554,3.78l0.037-0.299
			c0.226-1.84-0.143-2.761-1.102-2.761c-1.32,0-2.912,0.261-4.776,0.78c-1.864,0.521-2.601,1.293-2.527,2.837
			s1.464,1.423,1.464,1.423c0.815,0.201,1.154,0.861,1.017,1.98l-3.588,29.22c-0.243,1.986-0.865,6.536-1.324,9.6h5.616
			c0,0,0.614-5.57,0.747-6.659l4.126-33.601c2.231-1.561,4.577-2.34,7.037-2.34s4.326,1.091,5.599,3.27
			c1.271,2.181,1.691,5.04,1.256,8.58c-0.434,3.54-1.566,6.49-3.396,8.851c-1.829,2.36-3.943,3.54-6.344,3.54
			c-1.08,0-2.852-0.479-3.673-0.8c-0.821-0.319-2.974-1.583-3.008-1.564c-0.646,0.355-1.526,0.705-1.649,1.704
			c-0.059,0.48,3.75,3.916,9.312,3.9c3.8-0.011,7.146-1.6,10.04-4.8c2.892-3.201,4.62-7.091,5.183-11.671
			C160.459,74.743,159.716,71.102,157.667,68.402z"/>
		<path display="none" fill="#FFFFFF" d="M158.667,68.402c-2.049-2.7-4.804-4.051-8.263-4.051c-3.46,0-6.645,1.261-9.554,3.78
			l0.037-0.299c0.226-1.84-0.143-2.761-1.102-2.761c-1.32,0-2.912,0.261-4.775,0.78c-1.864,0.521-3.151,1.061-3.859,1.619
			l-0.243,1.98l3.039,0.66c0.815,0.201,1.153,0.861,1.017,1.98l-3.588,29.22c-0.243,1.986-0.865,6.536-1.324,9.6h5.616
			c0,0,0.614-5.57,0.747-6.659l4.126-33.601c2.231-1.561,4.577-2.34,7.037-2.34s4.326,1.091,5.599,3.27
			c1.271,2.181,1.691,5.04,1.256,8.58c-0.434,3.54-1.566,6.49-3.396,8.851c-1.829,2.36-3.943,3.54-6.344,3.54
			c-1.08,0-2.852-0.479-3.673-0.8c-0.821-0.319-2.974-1.583-3.008-1.564c-0.646,0.355-1.526,0.705-1.649,1.704
			c-0.059,0.48,3.75,3.916,9.312,3.9c3.8-0.011,7.146-1.6,10.04-4.8c2.892-3.201,4.62-7.091,5.183-11.671
			C161.459,74.743,160.716,71.102,158.667,68.402z"/>
		<path fill="#FFFFFF" d="M169.828,91.711c0.961,0,2.012-0.42,3.155-1.26l3.058-2.292c-0.001,0,1.391-0.063,0.963,0.9
			c-0.992,2.244-4.983,6.732-10.256,6.732c-1.641,0-2.76-0.501-3.355-1.501c-0.598-0.999-0.76-2.619-0.484-4.859l4.288-34.921
			c0.108-0.879-0.239-1.319-1.038-1.319c0,0-0.826-0.434-1.049-1.503s0.773-1.956,2.338-2.638c1.562-0.68,2.785-1.02,3.664-1.02
			c1.561,0,2.262,0.641,2.104,1.92l-4.937,39.721C168.112,91.032,168.628,91.711,169.828,91.711z"/>
		<path fill="#FFFFFF" d="M186.366,95.792c-4.2,0-7.378-1.4-9.534-4.2s-2.942-6.57-2.361-11.311c0.582-4.74,2.473-8.58,5.675-11.52
			c3.201-2.94,7.141-4.411,11.821-4.411c3.28,0,5.694,0.861,7.243,2.581s2.166,3.86,1.854,6.419c-0.314,2.562-1.629,4.861-3.939,6.9
			c-2.311,2.041-5.225,3.061-8.745,3.061c-1.281,0-2.67-0.239-4.172-0.721c-1.5-0.479-2.195-1.179-2.082-2.1
			c0.039-0.319,0.166-0.62,0.381-0.9c0.215-0.279,0.391-0.42,0.531-0.42s0.585,0.131,1.332,0.391c0.748,0.26,1.603,0.39,2.563,0.39
			c2.397,0,4.352-0.68,5.859-2.04c1.506-1.358,2.365-2.89,2.574-4.59c0.209-1.699-0.117-3.12-0.977-4.26
			c-0.861-1.141-2.19-1.711-3.99-1.711c-2.561,0-4.697,1.132-6.416,3.391c-1.718,2.261-2.814,5.33-3.291,9.21
			c-0.477,3.881-0.078,6.831,1.193,8.85c1.271,2.021,3.508,3.03,6.708,3.03c3.199,0,6.099-1.14,8.699-3.42
			c0.18-0.159,0.4-0.24,0.66-0.24s0.547,0.19,0.861,0.57c0.312,0.381,0.451,0.72,0.414,1.021c-0.037,0.3-0.146,0.53-0.324,0.689
			C195.385,94.012,191.206,95.792,186.366,95.792z"/>
		<path fill="#FFFFFF" d="M252.043,87.075l-2.617,1.813l-2.68,1.684c-1.145,0.84-2.195,1.26-3.154,1.26
			c-1.201,0-1.717-0.68-1.549-2.04l1.781-14.521c0.473-3.839,0.203-6.619-0.805-8.339c-1.01-1.72-2.814-2.581-5.414-2.581
			c-2.602,0-5.043,0.841-7.33,2.521c-2.285,1.68-4.109,3.821-5.467,6.421l2.865-23.341c0.158-1.279-0.545-1.92-2.105-1.92
			c-0.879,0-2.102,0.34-3.664,1.02c-1.564,0.682-2.195,1.461-2.17,2.638s0.881,1.503,0.881,1.503c0.801,0,1.146,0.44,1.039,1.319
			c0,0-4.793,39.383-4.873,40.44h5.779c-0.043-0.562,0.621-8.408,0.768-9.6c0.594-4.84,1.875-8.771,3.846-11.79
			s4.256-4.53,6.857-4.53c1.879,0,3.146,0.511,3.801,1.53c0.656,1.02,0.854,2.59,0.592,4.709l-1.752,14.281
			c-0.275,2.24-0.115,3.86,0.482,4.859c0.598,1,1.719,1.404,3.355,1.5c6.076,0.355,11.82-7.332,11.82-7.332L252.043,87.075z"/>
		<path display="none" fill="#FFFFFF" d="M272.598,89.672c-0.152,1.239,0.35,1.859,1.51,1.859c0.92,0,1.943-0.36,3.074-1.08
			l0.203,0.335l0.744,1.226c-1.057,1.12-2.24,2.03-3.545,2.729c-1.307,0.699-2.479,1.051-3.52,1.051
			c-3.08,0-4.383-1.921-3.912-5.761c-1.137,1.761-2.678,3.161-4.627,4.2c-1.947,1.04-4.191,1.561-6.73,1.561
			c-2.541,0-4.512-0.871-5.92-2.61c-1.406-1.74-1.916-4.19-1.527-7.351l1.842-14.999c0.107-0.881-0.238-1.32-1.037-1.32
			c0,0-1.457-0.26-1.578-1.514c-0.119-1.254,1.133-1.946,2.717-2.626c1.582-0.681,2.834-1.021,3.754-1.021
			c1.6,0,2.322,0.642,2.164,1.921l-2.232,18.18c-0.6,4.881,1.021,7.32,4.863,7.32c2.678,0,4.91-1.159,6.695-3.48
			c1.785-2.319,2.895-5.239,3.326-8.76c0.432-3.52,0.58-6.109,0.445-7.771c-0.139-1.659-0.553-3.249-1.246-4.77
			c0,0-0.764-0.004-0.602-0.959s0.83-0.901,0.83-0.901l7.416-0.78L272.598,89.672z"/>
		<path fill="#FFFFFF" d="M294.871,67.712c-0.959,0-1.846,0.13-2.656,0.39c-0.812,0.261-1.289,0.39-1.428,0.39
			c-0.141,0-0.285-0.14-0.43-0.42c-0.145-0.279-0.193-0.619-0.145-1.02c0.049-0.399,0.268-0.721,0.658-0.961
			c1.98-1.159,4.072-1.74,6.273-1.74c3.76,0,6.664,1.351,8.713,4.051s2.793,6.33,2.232,10.891c-0.561,4.56-2.518,8.45-5.873,11.67
			s-7.395,4.83-12.113,4.83c-4.721,0-8.184-1.261-10.396-3.78l4.605-37.501c0.107-0.879-0.238-1.319-1.039-1.319
			c0,0-0.619-0.224-0.789-1.378s0.514-2.081,2.078-2.763c1.562-0.68,2.785-1.02,3.666-1.02c1.559,0,2.262,0.641,2.104,1.92
			l-4.98,40.56c1.643,1.281,3.734,1.921,6.275,1.921c2.539,0,4.727-1.11,6.559-3.33c1.832-2.221,2.979-5.2,3.438-8.94
			c0.459-3.739,0.059-6.75-1.201-9.03C299.16,68.852,297.311,67.712,294.871,67.712z"/>
		<path fill="#FFFFFF" d="M272.652,89.788c-0.152,1.239,0.352,1.859,1.512,1.859c0.92,0,1.943-0.36,3.072-1.08l0.893,1.445
			c0,0-4.506,3.931-7.008,3.896c-3.08-0.043-4.385-1.921-3.912-5.761c-1.139,1.761-2.68,3.161-4.627,4.2
			c-1.947,1.04-4.191,1.561-6.732,1.561c-2.539,0-4.512-0.871-5.918-2.61c-1.406-1.74-1.916-4.19-1.527-7.351l1.842-14.999
			c0.107-0.881-0.205-1.018-1.037-1.32c0,0-0.811-0.296-0.85-1.563c-0.041-1.268,0.404-1.896,1.986-2.576
			c1.584-0.681,2.834-1.021,3.756-1.021c1.6,0,2.32,0.642,2.164,1.921l-2.232,18.18c-0.6,4.881,1.021,7.32,4.861,7.32
			c2.68,0,4.912-1.159,6.697-3.48c1.785-2.319,2.893-5.239,3.326-8.76c0.432-3.52,0.578-6.109,0.443-7.771
			c-0.137-1.659-0.518-2.538-1.209-4.059c0,0-0.648-0.632-0.637-1.67s0.83-0.901,0.83-0.901l7.416-0.78L272.652,89.788z"/>
	</g>
	<g>
		<path fill="#FFFFFF" d="M10.749,77.941c0.114-31.44,8.314-52.655,15.832-66.086l7.974-4.702
			c-8.657,15.72-17.659,41.408-17.659,70.255c0,28.541,9.229,54.38,17.659,70.254l-7.974-4.703
			C19.063,129.833,10.749,109.076,10.749,77.941z"/>
		<path fill="#FFFFFF" d="M321.562,143.028l-7.973,4.702c8.43-15.873,17.658-41.713,17.658-70.254
			c0-28.846-9.002-54.534-17.658-70.253l7.973,4.702c7.518,13.43,15.717,34.645,15.832,66.085
			C337.395,109.145,329.08,129.902,321.562,143.028z"/>
	</g>
</g>
</svg>
