<?xml version="1.0" encoding="utf-8"?>
<!-- Generator: Adobe Illustrator 16.0.3, SVG Export Plug-In . SVG Version: 6.00 Build 0)  -->
<!DOCTYPE svg PUBLIC "-//W3C//DTD SVG 1.1//EN" "http://www.w3.org/Graphics/SVG/1.1/DTD/svg11.dtd">
<svg version="1.1" id="Layer_1" xmlns="http://www.w3.org/2000/svg" xmlns:xlink="http://www.w3.org/1999/xlink" x="0px" y="0px"
	 width="345.07px" height="159.156px" viewBox="0 0 345.07 159.156" enable-background="new 0 0 345.07 159.156"
	 xml:space="preserve">
<g>
	<path fill="#FFFFFF" d="M10.008,77.878c0.114-26.744,8.314-44.79,15.832-56.213l7.974-4c-8.657,13.371-17.659,35.222-17.659,59.759
		c0,24.277,9.229,46.257,17.659,59.759l-7.974-4C18.323,122.017,10.008,104.361,10.008,77.878z"/>
	<path fill="#FFFFFF" d="M320.821,133.242l-7.973,4c8.43-13.502,17.658-35.482,17.658-59.759c0-24.537-9.002-46.388-17.658-59.759
		l7.973,4c7.518,11.424,15.717,29.469,15.832,56.213C336.653,104.419,328.339,122.076,320.821,133.242z"/>
</g>
<g>
	<path fill="#FFFFFF" d="M61.613,84.703c0.154-0.093,2.259-1.415,2.504-1.551c0.31-0.171,5.803-4.3,6.099-3.939
		c0.061,0.074,0.863,1.023,0.318,1.86c-2.104,3.234-9.569,10.302-18.633,10.65c-4.257,0.164-7.568-1.48-9.925-4.44
		c-2.357-2.96-3.249-6.77-2.677-11.43c0.572-4.659,2.354-8.421,5.346-11.281c2.99-2.859,6.686-4.29,11.086-4.29
		c3.08,0,5.519,0.751,7.313,2.251c1.796,1.5,2.55,3.431,2.26,5.79c-0.211,1.72-0.936,3.131-2.17,4.229
		c-1.235,1.102-3.241,1.24-3.835-0.128c-0.593-1.368,1.25-0.583,1.25-3.25c0-1.652-1.02-3.422-1.925-4.361
		c-0.904-0.939-2.217-1.411-3.937-1.411c-2.279,0-4.258,1.121-5.933,3.361c-1.675,2.239-2.738,5.2-3.189,8.879
		c-0.452,3.681,0.135,5.74,1.526,7.92c1.393,2.18,3.519,3.27,6.379,3.27C56.331,86.832,58.545,86.551,61.613,84.703z"/>
	<path display="none" fill="#FFFFFF" d="M77.161,168.013c0.155-0.092,2.26-1.414,2.505-1.551c0.309-0.17,5.803-4.299,6.098-3.939
		c0.296,0.359-4.536,5.096-4.851,5.5c-0.198,0.256-2.007,1.91-2.143,2.031c-3.287,3.32-7.062,4.98-11.321,4.98
		s-7.568-1.48-9.924-4.441c-2.357-2.959-3.249-6.77-2.677-11.43c0.572-4.658,2.353-8.42,5.345-11.281
		c2.991-2.859,6.686-4.289,11.086-4.289c3.08,0,5.519,0.75,7.313,2.25c1.797,1.5,2.55,3.432,2.261,5.791
		c-0.212,1.719-0.936,3.131-2.17,4.229c-1.236,1.102-2.714,1.65-4.433,1.65c-0.761,0-1.113-0.219-1.06-0.66
		c0.01-0.08,0.157-0.299,0.441-0.658c0.862-1.162,1.395-2.561,1.596-4.201s-0.149-2.93-1.055-3.869
		c-0.904-0.939-2.218-1.412-3.938-1.412c-2.279,0-4.258,1.121-5.932,3.361c-1.676,2.24-2.738,5.201-3.19,8.879
		c-0.452,3.682,0.018,6.611,1.41,8.791s3.519,3.27,6.379,3.27C71.762,171.013,74.094,169.863,77.161,168.013z"/>
	<path fill="#FFFFFF" d="M92.341,85.603c-0.151,1.239,0.352,1.859,1.512,1.859c6.044,0,8.078-4.705,8.078-4.705l1.082,0.805
		c0,0-3.006,8.177-12.203,8.161c-3.081-0.005-4.385-1.921-3.913-5.761c-1.137,1.761-2.678,3.161-4.626,4.2
		c-1.948,1.04-4.191,1.561-6.731,1.561s-4.513-0.871-5.919-2.61c-1.406-1.74-1.916-4.19-1.528-7.351l1.842-14.999
		c0.108-0.881-0.239-1.049-1.037-1.32c0,0-0.987-0.681-1.028-1.948c-0.04-1.268,0.583-1.512,2.167-2.191
		c1.583-0.681,2.834-1.021,3.755-1.021c1.6,0,2.32,0.642,2.164,1.921l-2.232,18.18c-0.6,4.881,1.021,7.32,4.861,7.32
		c2.679,0,4.912-1.159,6.697-3.48c1.785-2.319,2.894-5.239,3.325-8.76c0.433-3.52,0.58-6.109,0.444-7.771
		c-0.137-1.659-0.517-2.538-1.209-4.059c0,0-0.649-0.632-0.637-1.67c0.012-1.038,0.83-0.901,0.83-0.901l7.416-0.78L92.341,85.603z"
		/>
	<path fill="#FFFFFF" d="M125.902,64.333c-2.049-2.7-4.804-4.051-8.263-4.051c-3.46,0-6.645,1.261-9.554,3.78l0.036-0.299
		c0.227-1.84-0.142-2.761-1.102-2.761c-1.319,0-2.911,0.261-4.775,0.78c-1.863,0.521-2.574,1.168-2.501,2.712
		c0.074,1.544,1.438,1.548,1.438,1.548c0.814,0.201,1.153,0.861,1.017,1.98l-3.588,29.221c-0.243,1.986-0.865,6.535-1.324,9.6h5.616
		c0,0,0.613-5.57,0.747-6.66l4.126-33.601c2.231-1.561,4.577-2.34,7.037-2.34s4.326,1.091,5.599,3.27
		c1.271,2.181,1.69,5.04,1.256,8.58s-1.567,6.49-3.396,8.851s-3.944,3.54-6.345,3.54c-1.08,0-2.852-0.479-3.672-0.8
		c-0.821-0.319-2.974-1.583-3.008-1.564c-0.646,0.355-1.527,0.705-1.65,1.704c-0.059,0.48,3.75,3.916,9.312,3.9
		c3.8-0.011,7.146-1.6,10.039-4.8c2.893-3.201,4.621-7.091,5.184-11.671C128.694,70.673,127.95,67.033,125.902,64.333z"/>
	<path fill="#FFFFFF" d="M156.927,64.333c-2.048-2.7-4.804-4.051-8.263-4.051c-3.46,0-6.645,1.261-9.554,3.78l0.037-0.299
		c0.226-1.84-0.142-2.761-1.102-2.761c-1.319,0-2.912,0.261-4.775,0.78c-1.864,0.521-2.601,1.293-2.527,2.837
		c0.074,1.544,1.464,1.423,1.464,1.423c0.815,0.201,1.154,0.861,1.017,1.98l-3.588,29.221c-0.243,1.986-0.865,6.535-1.323,9.6h5.615
		c0,0,0.614-5.57,0.748-6.66l4.125-33.601c2.231-1.561,4.577-2.34,7.037-2.34s4.326,1.091,5.599,3.27
		c1.271,2.181,1.691,5.04,1.257,8.58s-1.567,6.49-3.396,8.851c-1.83,2.36-3.944,3.54-6.345,3.54c-1.08,0-2.852-0.479-3.673-0.8
		c-0.821-0.319-2.974-1.583-3.008-1.564c-0.646,0.355-1.526,0.705-1.649,1.704c-0.059,0.48,3.75,3.916,9.312,3.9
		c3.8-0.011,7.146-1.6,10.04-4.8c2.892-3.201,4.62-7.091,5.183-11.671C159.719,70.673,158.976,67.033,156.927,64.333z"/>
	<path display="none" fill="#FFFFFF" d="M157.927,64.333c-2.048-2.7-4.804-4.051-8.263-4.051c-3.46,0-6.645,1.261-9.554,3.78
		l0.037-0.299c0.226-1.84-0.142-2.761-1.102-2.761c-1.319,0-2.912,0.261-4.775,0.78c-1.864,0.521-3.151,1.061-3.859,1.619
		l-0.243,1.98l3.039,0.66c0.815,0.201,1.154,0.861,1.017,1.98l-3.588,29.221c-0.243,1.986-0.865,6.535-1.323,9.6h5.615
		c0,0,0.614-5.57,0.748-6.66l4.125-33.601c2.231-1.561,4.577-2.34,7.037-2.34s4.326,1.091,5.599,3.27
		c1.271,2.181,1.691,5.04,1.257,8.58s-1.567,6.49-3.396,8.851c-1.83,2.36-3.944,3.54-6.345,3.54c-1.08,0-2.852-0.479-3.673-0.8
		c-0.821-0.319-2.974-1.583-3.008-1.564c-0.646,0.355-1.526,0.705-1.649,1.704c-0.059,0.48,3.75,3.916,9.312,3.9
		c3.8-0.011,7.146-1.6,10.04-4.8c2.892-3.201,4.62-7.091,5.183-11.671C160.719,70.673,159.976,67.033,157.927,64.333z"/>
	<path fill="#FFFFFF" d="M169.088,87.642c0.961,0,2.012-0.42,3.154-1.26l3.059-2.292c-0.002,0,1.391-0.063,0.963,0.9
		c-0.992,2.244-4.984,6.732-10.256,6.732c-1.641,0-2.76-0.501-3.355-1.501c-0.598-0.999-0.76-2.619-0.484-4.859l4.287-34.921
		c0.109-0.879-0.238-1.319-1.037-1.319c0,0-0.826-0.434-1.049-1.503s0.773-1.956,2.338-2.638c1.562-0.68,2.785-1.02,3.664-1.02
		c1.561,0,2.262,0.641,2.104,1.92l-4.936,39.721C167.371,86.962,167.889,87.642,169.088,87.642z"/>
	<path fill="#FFFFFF" d="M185.625,91.723c-4.199,0-7.377-1.4-9.533-4.2s-2.943-6.57-2.361-11.311s2.473-8.58,5.674-11.52
		c3.201-2.94,7.141-4.411,11.822-4.411c3.279,0,5.693,0.861,7.242,2.581s2.166,3.86,1.854,6.419c-0.314,2.562-1.629,4.861-3.939,6.9
		c-2.311,2.041-5.225,3.061-8.744,3.061c-1.281,0-2.67-0.239-4.172-0.721c-1.5-0.479-2.195-1.179-2.082-2.1
		c0.039-0.319,0.166-0.62,0.381-0.9c0.215-0.279,0.391-0.42,0.531-0.42s0.584,0.131,1.332,0.391s1.602,0.39,2.562,0.39
		c2.398,0,4.352-0.68,5.859-2.04c1.506-1.358,2.365-2.89,2.574-4.59c0.209-1.699-0.117-3.12-0.977-4.26
		c-0.861-1.141-2.191-1.711-3.99-1.711c-2.561,0-4.697,1.132-6.416,3.391c-1.719,2.261-2.814,5.33-3.291,9.21
		c-0.477,3.881-0.078,6.831,1.193,8.85c1.271,2.021,3.508,3.03,6.707,3.03s6.1-1.14,8.699-3.42c0.18-0.159,0.4-0.24,0.66-0.24
		s0.547,0.19,0.861,0.57c0.312,0.381,0.451,0.72,0.414,1.021c-0.037,0.3-0.146,0.53-0.324,0.689
		C194.645,89.943,190.465,91.723,185.625,91.723z"/>
	<path fill="#FFFFFF" d="M251.303,83.005l-2.616,1.813l-2.681,1.684c-1.144,0.84-2.194,1.26-3.154,1.26
		c-1.2,0-1.717-0.68-1.549-2.04l1.782-14.521c0.472-3.839,0.202-6.619-0.806-8.339c-1.01-1.72-2.814-2.581-5.414-2.581
		c-2.601,0-5.043,0.841-7.329,2.521s-4.109,3.821-5.468,6.421l2.866-23.341c0.157-1.279-0.545-1.92-2.105-1.92
		c-0.88,0-2.103,0.34-3.665,1.02c-1.563,0.682-2.195,1.461-2.17,2.638s0.882,1.503,0.882,1.503c0.8,0,1.146,0.44,1.038,1.319
		c0,0-4.792,39.383-4.873,40.44h5.779c-0.042-0.562,0.621-8.408,0.768-9.6c0.594-4.84,1.875-8.771,3.847-11.79
		c1.971-3.02,4.256-4.53,6.856-4.53c1.88,0,3.147,0.511,3.802,1.53c0.655,1.02,0.853,2.59,0.592,4.709l-1.753,14.281
		c-0.275,2.24-0.114,3.86,0.483,4.859c0.597,1,1.718,1.404,3.355,1.5c6.076,0.355,11.819-7.332,11.819-7.332L251.303,83.005z"/>
	<path display="none" fill="#FFFFFF" d="M271.857,85.603c-0.152,1.239,0.351,1.859,1.511,1.859c0.92,0,1.943-0.36,3.073-1.08
		l0.203,0.335l0.744,1.226c-1.057,1.12-2.239,2.03-3.545,2.729c-1.307,0.699-2.479,1.051-3.519,1.051
		c-3.081,0-4.384-1.921-3.913-5.761c-1.137,1.761-2.678,3.161-4.626,4.2c-1.947,1.04-4.191,1.561-6.731,1.561
		s-4.512-0.871-5.919-2.61c-1.406-1.74-1.916-4.19-1.528-7.351l1.842-14.999c0.108-0.881-0.238-1.32-1.037-1.32
		c0,0-1.457-0.26-1.577-1.514s1.132-1.946,2.716-2.626c1.583-0.681,2.834-1.021,3.755-1.021c1.6,0,2.321,0.642,2.164,1.921
		l-2.232,18.18c-0.6,4.881,1.021,7.32,4.862,7.32c2.679,0,4.911-1.159,6.696-3.48c1.785-2.319,2.894-5.239,3.326-8.76
		c0.432-3.52,0.579-6.109,0.444-7.771c-0.138-1.659-0.553-3.249-1.245-4.77c0,0-0.764-0.004-0.602-0.959s0.83-0.901,0.83-0.901
		l7.416-0.78L271.857,85.603z"/>
	<path fill="#FFFFFF" d="M294.132,63.643c-0.96,0-1.846,0.13-2.657,0.39c-0.812,0.261-1.288,0.39-1.428,0.39
		c-0.141,0-0.284-0.14-0.43-0.42c-0.145-0.279-0.193-0.619-0.144-1.02c0.049-0.399,0.268-0.721,0.657-0.961
		c1.981-1.159,4.073-1.74,6.273-1.74c3.76,0,6.664,1.351,8.713,4.051s2.793,6.33,2.233,10.891c-0.561,4.56-2.519,8.45-5.874,11.67
		c-3.354,3.22-7.394,4.83-12.112,4.83c-4.721,0-8.185-1.261-10.396-3.78l4.604-37.501c0.108-0.879-0.238-1.319-1.038-1.319
		c0,0-0.62-0.224-0.79-1.378s0.515-2.081,2.079-2.763c1.562-0.68,2.785-1.02,3.665-1.02c1.56,0,2.262,0.641,2.104,1.92l-4.98,40.56
		c1.643,1.281,3.734,1.921,6.274,1.921s4.727-1.11,6.559-3.33c1.832-2.221,2.979-5.2,3.438-8.94c0.46-3.739,0.059-6.75-1.2-9.03
		C298.421,64.783,296.571,63.643,294.132,63.643z"/>
	<path fill="#FFFFFF" d="M271.913,85.718c-0.152,1.239,0.352,1.859,1.512,1.859c0.92,0,1.943-0.36,3.072-1.08l0.892,1.445
		c0,0-4.506,3.931-7.007,3.896c-3.081-0.043-4.385-1.921-3.913-5.761c-1.138,1.761-2.679,3.161-4.626,4.2
		c-1.948,1.04-4.191,1.561-6.732,1.561c-2.539,0-4.512-0.871-5.918-2.61c-1.406-1.74-1.916-4.19-1.528-7.351l1.842-14.999
		c0.108-0.881-0.205-1.018-1.037-1.32c0,0-0.81-0.296-0.85-1.563s0.404-1.896,1.987-2.576c1.584-0.681,2.834-1.021,3.756-1.021
		c1.6,0,2.32,0.642,2.164,1.921l-2.232,18.18c-0.6,4.881,1.021,7.32,4.861,7.32c2.679,0,4.912-1.159,6.697-3.48
		c1.785-2.319,2.893-5.239,3.325-8.76c0.433-3.52,0.579-6.109,0.444-7.771c-0.137-1.659-0.518-2.538-1.209-4.059
		c0,0-0.649-0.632-0.637-1.67c0.012-1.038,0.83-0.901,0.83-0.901l7.416-0.78L271.913,85.718z"/>
</g>
</svg>
